<svg xmlns="http://www.w3.org/2000/svg" version="1.1" xmlns:xlink="http://www.w3.org/1999/xlink" xmlns:svgjs="http://svgjs.dev/svgjs" viewBox="0 0 800 800" opacity="1"><defs><linearGradient x1="50%" y1="0%" x2="50%" y2="100%" id="ccchaos-grad"><stop stop-color="#fc8a08" stop-opacity="1" offset="0%"></stop><stop stop-color="hsv(240, 2%, 27%)" stop-opacity="1" offset="100%"></stop></linearGradient></defs><g stroke-width="20" stroke="url(#ccchaos-grad)" fill="none" stroke-linecap="round"><path d="M398.74 127.12C408.03 124.62 417.53 122.73 427.22 121.47 436.93 120.41 446.86 120.04 456.97 120.37 467.14 121 477.5 122.35 488.02 124.41 498.58 126.8 509.29 129.9 520.07 133.67 530.83 137.75 541.59 142.47 552.26 147.77 562.77 153.33 573.03 159.43 582.91 166.01 592.41 172.77 601.33 179.95 609.48 187.5 616.99 195.16 623.53 203.12 628.94 211.35 633.51 219.61 636.81 228.1 638.76 236.76 639.87 245.41 639.69 254.22 638.28 263.14 636.34 272.03 633.5 281.03 629.97 290.11 626.58 299.15 623.06 308.28 619.72 317.5 617.4 326.66 615.85 335.92 615.37 345.26 616.59 354.57 619.23 363.98 623.37 373.47 629.32 382.94 636.63 392.52 645.04 402.18 654.58 411.84 664.52 421.59 674.39 431.41 684.04 441.24 692.41 450.9 699.1 460.36 704.36 469.82 707.36 479.06 708.02 488.05 706.76 497.01 703.17 505.68 697.45 514.03 690.16 522.3 681.22 530.19 670.99 537.65 660.01 545 648.39 551.86 636.49 558.2 624.72 564.37 613.18 569.97 602.11 574.95 591.76 579.74 582.12 583.89 573.24 587.39 565.31 590.7 558.11 593.37 551.59 595.41 543.31 598.03 529.49 600.71 523.21 601.16 517.26 601.76 504.03 603.41 496.36 605.04 491.07 606.92 485.23 609.21 478.85 611.94 472.4 615.53 465.4 619.63 457.88 624.22 450.29 629.64 442.2 635.49 433.64 641.67 425.04 648.43 415.99 655.31 406.53 662.14 397.06 669.15 387.43 675.61 377.67 681.38 367.94 686.87 358.12 691.38 348.24 694.82 338.42 697.64 328.56 699.22 318.73 699.56 308.98 699.1 299.28 697.37 289.7 694.41 280.23 690.69 270.93 685.82 261.85 679.94 252.95 673.42 244.34 666.03 236.08 657.9 228.07 649.35 220.47 640.24 213.36 630.68 206.54 620.92 200.24 610.87 194.52 600.63 189.1 590.36 184.25 580.01 180 569.65 175.99 559.37 172.52 549.14 169.58 539 166.75 528.99 164.34 519.08 162.33 509.3 160.23 499.65 158.4 490.11 156.78 480.67 154.89 471.35 153.11 462.11 151.4 452.95 149.29 443.86 147.2 434.81 145.13 425.82 142.66 416.86 140.24 407.91 137.94 399 135.34 390.09 132.98 381.2 130.93 372.32 128.84 363.44 127.29 354.79 126.33 346.38 125.6 337.96 125.59 329.79 126.35 321.88 127.49 313.97 129.44 306.34 132.19 299 135.35 291.67 139.29 284.65 143.92 277.95 148.88 271.27 154.46 264.92 160.55 258.93 166.8 252.94 173.45 247.29 180.41 242 187.35 236.7 194.48 231.74 201.74 227.11 208.83 222.43 215.97 218.06 223.15 213.99 230.06 209.81 236.98 205.88 243.9 202.21 250.55 198.35 257.22 194.69 263.95 191.22 270.43 187.5 277 183.92 283.71 180.46 290.22 176.72 296.92 173.06 303.82 169.51 310.59 165.65 317.62 161.88 324.93 158.22 332.15 154.28 339.69 150.48 347.55 146.85 355.36 143.01 363.52 139.41 372.05 136.1 380.55 132.7 389.44 129.69 398.73 127.12" stroke-dasharray="63 79" transform="rotate(0, 400, 400)" opacity="1.00"></path><path d="M410.07 144.95C418.97 142.48 428.05 140.58 437.27 139.25 446.51 138.11 455.9 137.6 465.41 137.74 474.94 138.13 484.57 139.19 494.27 140.91 503.94 142.92 513.62 145.58 523.24 148.87 532.76 152.45 542.12 156.63 551.23 161.36 560.11 166.34 568.6 171.84 576.56 177.8 584.13 183.96 591.01 190.54 597.09 197.48 602.6 204.55 607.17 211.94 610.69 219.6 613.57 227.34 615.36 235.3 616.04 243.46 616.17 251.65 615.32 260 613.58 268.47 611.63 276.95 609.1 285.54 606.2 294.22 603.67 302.89 601.21 311.64 599.09 320.46 597.98 329.25 597.66 338.12 598.3 347.04 600.43 355.94 603.76 364.91 608.31 373.91 614.35 382.92 621.44 391.97 629.38 401.05 638.21 410.14 647.31 419.25 656.27 428.38 665.06 437.5 672.74 446.41 678.99 455.07 684.08 463.72 687.26 472.11 688.44 480.21 688.04 488.28 685.59 496.02 681.25 503.41 675.49 510.73 668.16 517.66 659.54 524.16 650.1 530.56 639.85 536.5 629.1 541.93 618.22 547.24 607.28 552.02 596.5 556.26 586.12 560.37 576.17 563.92 566.74 566.92 557.99 569.81 549.82 572.18 542.22 574.04 535.32 575.88 528.9 577.29 522.87 578.3 514.79 579.85 499.94 582.27 492.67 583.57 485.47 585.66 469.74 591.86 460.96 596.27 454.96 600.07 448.52 604.26 441.65 608.83 434.75 614.08 427.41 619.65 419.64 625.45 411.85 631.73 403.65 638.06 395.05 644.31 386.46 650.71 377.7 656.61 368.82 661.9 359.97 666.96 351.04 671.18 342.07 674.49 333.15 677.28 324.22 679.02 315.35 679.68 306.57 679.69 297.87 678.59 289.33 676.41 280.92 673.57 272.7 669.71 264.74 664.9 256.97 659.53 249.5 653.33 242.41 646.41 235.55 639.08 229.1 631.15 223.12 622.75 217.39 614.1 212.15 605.1 207.43 595.83 202.94 586.48 198.96 576.95 195.5 567.34 192.19 557.73 189.33 548.1 186.91 538.49 184.51 528.95 182.45 519.45 180.7 510.04 178.79 500.71 177.09 491.47 175.53 482.32 173.68 473.26 171.88 464.27 170.13 455.38 167.98 446.56 165.83 437.8 163.69 429.12 161.16 420.48 158.68 411.9 156.29 403.39 153.64 394.89 151.2 386.45 149.04 378.08 146.85 369.71 145.16 361.6 144.03 353.75 143.09 345.91 142.84 338.33 143.3 331.03 144.12 323.72 145.7 316.7 148.04 309.97 150.78 303.24 154.26 296.81 158.43 290.69 162.94 284.56 168.07 278.74 173.72 273.25 179.6 267.73 185.9 262.52 192.55 257.63 199.26 252.7 206.22 248.05 213.35 243.7 220.4 239.27 227.56 235.09 234.79 231.18 241.83 227.12 248.91 223.29 256 219.66 262.87 215.84 269.77 212.19 276.69 208.69 283.4 204.96 290.17 201.34 297.03 197.83 303.7 194.06 310.5 190.38 317.44 186.79 324.25 182.93 331.26 179.16 338.48 175.51 345.6 171.61 352.99 167.85 360.65 164.28 368.25 160.52 376.16 157 384.39 153.75 392.59 150.44 401.15 147.49 410.06 144.96" stroke-dasharray="42 36" transform="rotate(7.571428571428571, 400, 400)" opacity="0.93"></path><path d="M419.57 162.79C428.02 160.36 436.57 158.46 445.17 157.1 453.79 155.88 462.46 155.26 471.14 155.21 479.82 155.39 488.49 156.18 497.09 157.57 505.64 159.22 514.07 161.46 522.3 164.28 530.4 167.36 538.21 171 545.65 175.15 552.84 179.54 559.55 184.42 565.68 189.75 571.44 195.26 576.51 201.19 580.81 207.47 584.65 213.89 587.65 220.64 589.75 227.66 591.41 234.78 592.2 242.14 592.14 249.69 591.78 257.31 590.72 265.1 589.08 273.02 587.46 280.97 585.53 289.05 583.46 297.21 581.89 305.38 580.54 313.64 579.59 321.95 579.61 330.26 580.36 338.63 581.95 347.03 584.81 355.43 588.64 363.87 593.45 372.31 599.45 380.76 606.25 389.22 613.67 397.67 621.78 406.13 630.05 414.57 638.16 422.96 646.11 431.36 653.11 439.51 658.9 447.38 663.76 455.24 667.03 462.81 668.61 470.07 668.89 477.3 667.43 484.19 664.29 490.72 659.93 497.19 654.12 503.28 647.06 508.96 639.17 514.56 630.4 519.73 620.99 524.44 611.27 529.07 601.26 533.24 591.17 536.93 581.22 540.55 571.44 543.7 561.94 546.39 552.88 549.05 544.2 551.29 535.95 553.14 528.23 555.02 520.91 556.58 513.96 557.84 507.49 559.27 501.3 560.51 495.32 561.61 486.94 563.69 470.7 568.65 462.51 571.84 457.11 574.59 451.5 577.61 445.62 580.91 439.79 584.81 433.65 589.02 427.19 593.51 420.74 598.55 413.95 603.8 406.83 609.2 399.7 614.99 392.24 620.79 384.47 626.47 376.69 632.28 368.8 637.64 360.84 642.45 352.91 647.1 344.92 651.02 336.95 654.14 329.02 656.87 321.13 658.7 313.33 659.6 305.61 659.98 298.02 659.4 290.62 657.87 283.34 655.8 276.28 652.82 269.5 648.99 262.89 644.67 256.59 639.58 250.67 633.8 244.92 627.64 239.58 620.89 234.67 613.64 229.95 606.14 225.66 598.25 221.84 590.04 218.16 581.7 214.91 573.13 212.09 564.4 209.34 555.63 206.95 546.76 204.92 537.86 202.82 528.96 200.99 520.06 199.38 511.2 197.57 502.38 195.91 493.6 194.34 484.9 192.46 476.25 190.61 467.67 188.78 459.18 186.56 450.73 184.34 442.36 182.12 434.08 179.54 425.83 177 417.66 174.56 409.59 171.88 401.53 169.38 393.55 167.16 385.67 164.9 377.79 163.1 370.19 161.82 362.87 160.71 355.54 160.23 348.49 160.41 341.72 160.91 334.94 162.12 328.44 164.04 322.23 166.33 316 169.33 310.06 172.98 304.41 176.97 298.73 181.57 293.33 186.71 288.23 192.09 283.08 197.93 278.21 204.15 273.61 210.49 268.94 217.12 264.53 223.98 260.37 230.84 256.1 237.85 252.06 244.98 248.23 252 244.25 259.1 240.46 266.24 236.84 273.23 233.04 280.26 229.37 287.31 225.83 294.2 222.08 301.14 218.43 308.12 214.88 314.96 211.1 321.88 207.4 328.9 203.79 335.8 199.95 342.83 196.21 350.02 192.59 357.13 188.76 364.43 185.08 371.93 181.58 379.38 177.93 387.07 174.5 395 171.35 402.91 168.14 411.1 165.27 419.55 162.79" stroke-dasharray="101 60" transform="rotate(15.142857142857142, 400, 400)" opacity="0.86"></path><path d="M425.53 180.62C433.44 178.27 441.34 176.39 449.2 175 457.06 173.74 464.87 173.01 472.59 172.81 480.28 172.8 487.85 173.34 495.24 174.42 502.56 175.72 509.65 177.57 516.45 179.93 523.1 182.53 529.39 185.63 535.25 189.22 540.88 193.02 545.99 197.27 550.53 201.94 554.78 206.8 558.38 212.04 561.3 217.63 563.9 223.36 565.79 229.42 566.98 235.74 567.9 242.17 568.17 248.84 567.84 255.72 567.41 262.68 566.54 269.81 565.31 277.08 564.28 284.41 563.13 291.86 562 299.4 561.42 306.97 561.13 314.63 561.27 322.33 562.28 330.06 563.92 337.83 566.27 345.62 569.67 353.43 573.84 361.25 578.75 369.06 584.6 376.88 591.04 384.69 597.91 392.46 605.31 400.24 612.77 407.97 620.04 415.63 627.19 423.28 633.52 430.67 638.84 437.78 643.43 444.88 646.69 451.68 648.56 458.17 649.38 464.63 648.72 470.76 646.63 476.54 643.49 482.28 639.06 487.66 633.48 492.66 627.11 497.61 619.84 502.18 611.86 506.34 603.46 510.46 594.63 514.18 585.54 517.51 576.39 520.8 567.2 523.72 558.09 526.27 549.19 528.84 540.5 531.08 532.06 533.01 523.97 535.04 516.17 536.82 508.68 538.39 501.54 540.15 494.66 541.78 488.01 543.33 481.67 545.16 475.48 547 469.4 548.89 463.54 551.16 457.71 553.56 451.86 556.12 446.14 559.14 440.34 562.37 434.43 565.81 428.57 569.75 422.55 573.9 416.35 578.24 410.17 583.02 403.77 587.94 397.16 592.93 390.56 598.23 383.73 603.5 376.69 608.64 369.65 613.88 362.58 618.71 355.51 623.06 348.45 627.29 341.42 630.88 334.44 633.81 327.5 636.43 320.66 638.28 313.94 639.35 307.3 640 300.82 639.83 294.55 638.85 288.38 637.43 282.45 635.21 276.81 632.24 271.29 628.85 266.09 624.77 261.23 620.05 256.5 614.98 252.14 609.36 248.16 603.24 244.29 596.88 240.8 590.1 237.7 582.99 234.67 575.71 231.99 568.17 229.65 560.43 227.3 552.6 225.24 544.63 223.44 536.56 221.52 528.46 219.8 520.31 218.23 512.15 216.44 503.99 214.74 495.84 213.1 487.72 211.15 479.63 209.21 471.59 207.27 463.61 204.98 455.66 202.68 447.78 200.39 439.99 197.78 432.21 195.21 424.52 192.73 416.92 190.04 409.34 187.53 401.84 185.28 394.46 182.98 387.07 181.11 379.96 179.71 373.13 178.46 366.29 177.79 359.71 177.7 353.41 177.9 347.1 178.75 341.05 180.24 335.27 182.08 329.46 184.57 323.92 187.67 318.64 191.1 313.33 195.12 308.27 199.66 303.46 204.46 298.6 209.73 293.98 215.39 289.59 221.23 285.12 227.38 280.87 233.81 276.83 240.3 272.68 246.99 268.72 253.84 264.93 260.66 261.01 267.6 257.23 274.61 253.6 281.55 249.8 288.54 246.12 295.58 242.55 302.51 238.79 309.48 235.12 316.49 231.55 323.4 227.77 330.36 224.09 337.39 220.5 344.32 216.71 351.35 213.02 358.46 209.46 365.52 205.73 372.7 202.15 380 198.74 387.28 195.22 394.7 191.92 402.29 188.88 409.86 185.8 417.6 183.03 425.51 180.63" stroke-dasharray="101 44" transform="rotate(22.71428571428571, 400, 400)" opacity="0.80"></path><path d="M426.87 198.46C434.14 196.19 441.31 194.35 448.35 192.96 455.37 191.68 462.25 190.87 468.94 190.53 475.6 190.36 482.05 190.67 488.24 191.47 497.27 193.19 513.46 199.29 520.43 203.62 526.67 208.66 536.29 220.96 539.56 228.12 542 235.8 544.07 252.71 543.94 261.83 543.78 268.05 543.36 274.46 542.76 281.01 542.46 287.62 542.17 294.36 541.99 301.2 542.36 308.08 543.04 315.05 544.11 322.07 545.93 329.11 548.28 336.21 551.2 343.31 554.96 350.44 559.3 357.58 564.18 364.7 569.78 371.83 575.8 378.94 582.09 386 588.77 393.06 595.45 400.06 601.93 406.98 608.3 413.9 613.98 420.55 618.81 426.94 623.09 433.31 626.27 439.4 628.31 445.19 629.52 453.69 624.61 469.09 618.76 475.95 613.81 480.39 608 484.49 601.46 488.26 594.48 492.01 586.97 495.43 579.09 498.53 571.02 501.64 562.75 504.45 554.4 506.97 546.09 509.55 537.81 511.87 529.65 513.97 521.66 516.18 513.84 518.22 506.21 520.11 498.82 522.18 491.63 524.18 484.64 526.12 477.87 528.33 471.26 530.55 464.8 532.82 458.52 535.42 452.33 538.12 446.21 540.93 440.21 544.13 434.23 547.47 428.24 550.96 422.31 554.84 416.34 558.87 410.3 563.01 404.3 567.49 398.2 572.05 392.01 576.63 385.82 581.45 379.52 586.2 373.13 590.81 366.74 595.5 360.4 599.82 354.14 603.72 347.89 607.53 341.73 610.8 335.68 613.49 326.73 616.88 309.69 619.87 301.73 619.4 294.09 617.72 280.29 610.53 274.19 605.17 270.31 601.1 266.74 596.52 263.5 591.47 260.3 586.19 257.42 580.51 254.85 574.47 252.28 568.28 249.98 561.79 247.95 555.07 245.85 548.25 243.96 541.25 242.27 534.11 240.42 526.91 238.7 519.62 237.09 512.26 235.25 504.89 233.46 497.49 231.71 490.08 229.66 482.68 227.61 475.29 225.57 467.93 223.21 460.59 220.84 453.3 218.49 446.07 215.87 438.85 213.29 431.69 210.81 424.63 208.15 417.57 205.65 410.59 203.39 403.71 201.1 396.83 199.19 390.21 197.71 383.84 196.35 377.47 195.51 371.34 195.19 365.46 195.37 356.74 199.09 340.47 202.62 332.89 205.47 327.88 208.86 323.09 212.75 318.51 216.9 313.88 221.51 309.44 226.52 305.21 231.73 300.9 237.28 296.77 243.12 292.81 249.07 288.75 255.26 284.84 261.65 281.08 268.07 277.2 274.64 273.44 281.32 269.8 287.99 266.02 294.75 262.33 301.56 258.75 308.33 255.01 315.16 251.35 322.01 247.79 328.82 244.06 335.67 240.41 342.55 236.87 349.38 233.17 356.26 229.57 363.18 226.11 370.07 222.51 377.02 219.05 384.04 215.78 391.03 212.41 398.1 209.26 405.24 206.35 412.37 203.42 419.58 200.77 426.86 198.46" stroke-dasharray="54 17" transform="rotate(30.285714285714285, 400, 400)" opacity="0.73"></path><path d="M423.35 216.29C429.91 214.13 436.29 212.36 442.47 210.98 451.61 209.27 468.66 208.13 476.47 208.73 481.52 209.43 486.23 210.56 490.59 212.1 499.04 215.67 505.89 220.88 510.97 227.52 515.63 234.73 518.57 243.25 519.92 252.81 521.35 262.79 521.81 273.66 521.82 285.16 523.12 296.91 525.02 309.15 528.07 321.66 530.52 327.96 533.38 334.3 536.67 340.67 540.61 347.06 544.97 353.47 549.7 359.85 554.97 366.25 560.51 372.63 566.2 378.95 572.17 385.28 578.09 391.56 583.81 397.75 589.45 403.94 594.49 409.89 598.83 415.59 604.28 424 609.62 439.5 609.33 446.56 608.13 451.16 605.97 455.48 602.9 459.52 595 467.59 584.2 474.58 571.36 480.51 557.53 486.57 542.74 491.77 527.7 496.24 512.85 501.17 498.27 505.7 484.22 510.02 470.74 515.25 457.74 520.62 445.22 526.24 439.1 529.51 433.06 532.87 427.08 536.33 421.16 540.08 415.26 543.92 409.4 547.81 403.57 551.96 397.74 556.14 391.91 560.29 386.09 564.63 380.26 568.87 374.43 572.97 368.6 577.14 362.9 580.97 357.35 584.43 349.1 589.29 333.42 596.38 326.06 598.45 321.24 599.41 316.63 599.78 312.26 599.58 303.59 598.35 295.92 594.81 289.34 589.19 282.84 582.61 277.37 574.21 272.94 564.37 268.29 553.93 264.4 542.38 261.15 530.1 257.21 517.56 253.54 504.54 250.05 491.32 247.9 484.7 245.75 478.05 243.61 471.41 241.19 464.76 238.78 458.13 236.4 451.54 233.79 444.95 231.24 438.4 228.78 431.91 226.18 425.43 223.74 419 221.51 412.66 219.25 406.31 217.34 400.18 215.81 394.28 213.89 385.52 212.68 369.06 213.48 361.34 214.44 356.23 215.93 351.33 217.92 346.62 222.71 337.09 229.44 328.26 237.8 320.12 246.96 311.7 257.42 303.82 268.81 296.49 280.54 288.71 292.92 281.33 305.65 274.36 318.42 266.85 331.43 259.66 344.53 252.9 351.05 249.32 357.6 245.86 364.17 242.52 370.72 239.09 377.29 235.8 383.87 232.68 390.44 229.5 397.03 226.51 403.61 223.76 410.19 220.99 416.78 218.49 423.34 216.29" stroke-dasharray="55 9" transform="rotate(37.85714285714286, 400, 400)" opacity="0.66"></path><path d="M415.61 234.12C427.21 230.1 437.91 227.52 447.57 226.38 457.14 225.64 465.54 226.43 472.64 228.67 479.54 231.43 485.07 235.62 489.19 241.09 493.18 247.03 495.94 254.15 497.64 262.24 499.71 270.7 501.29 279.99 502.75 289.91 505.46 300.05 508.8 310.7 513.08 321.64 519.3 332.7 526.75 343.95 535.28 355.2 545.33 366.51 555.74 377.74 565.7 388.7 575.39 399.67 582.78 409.81 587.37 419.06 590.13 428.29 589.59 436.62 585.95 444.04 580.37 451.48 572.19 458.08 562.01 463.87 550.76 469.84 538.3 475.18 525.22 479.98 511.98 485.22 498.61 490.2 485.47 495.01 472.57 500.57 459.98 506.22 447.83 512 435.93 518.71 424.33 525.63 413.09 532.62 401.95 540.39 391.01 548.01 380.35 555.14 369.7 562.48 359.77 568.5 350.64 572.98 341.49 577.02 333.16 579.18 325.72 579.44 318.29 578.92 311.74 576.45 306.14 572.2 300.44 567.2 295.58 560.58 291.5 552.62 287.08 544.15 283.22 534.58 279.81 524.22 275.71 513.61 271.79 502.41 268.01 490.89 263.31 479.29 258.64 467.49 254.11 455.68 248.81 443.88 243.88 432.12 239.62 420.54 235.25 408.96 232.27 398.08 230.82 387.94 229.96 377.74 230.93 368.2 233.67 359.33 237.29 350.31 242.65 341.87 249.51 334 257.12 325.88 266 318.2 275.84 310.99 286.11 303.41 297.1 296.17 308.52 289.32 320.12 282.05 332.01 275.1 343.99 268.58 356.02 261.67 368.11 255.24 380.09 249.45 392.09 243.46 403.99 238.27 415.6 234.13" stroke-dasharray="42 50" transform="rotate(45.42857142857142, 400, 400)" opacity="0.59"></path><path d="M405.04 251.96C415.1 248.22 424.26 245.74 432.42 244.51 440.53 243.58 447.59 243.97 453.55 245.61 459.44 247.64 464.25 250.91 468.03 255.29 471.88 260.05 474.92 265.85 477.32 272.52 480.23 279.5 482.93 287.25 485.7 295.6 489.55 304.15 493.95 313.19 499.03 322.54 505.57 332 512.91 341.69 520.88 351.43 529.9 361.22 539 371 547.58 380.6 555.97 390.21 562.47 399.17 566.76 407.42 569.73 415.67 570.1 423.22 567.97 430.08 564.34 436.98 558.47 443.26 550.78 448.95 542.09 454.82 532.11 460.25 521.3 465.29 510.13 470.72 498.55 475.95 486.89 481.04 475.26 486.72 463.73 492.44 452.48 498.16 441.35 504.58 430.5 511.05 420.03 517.44 409.63 524.39 399.53 531.11 389.83 537.3 380.13 543.67 371.24 548.88 363.16 552.81 355.05 556.43 347.73 558.52 341.23 559.05 334.65 559.03 328.84 557.41 323.8 554.28 318.57 550.6 313.98 545.52 309.98 539.24 305.6 532.54 301.61 524.82 297.95 516.3 293.67 507.54 289.52 498.15 285.51 488.34 280.75 478.45 276.07 468.24 271.59 457.89 266.51 447.54 261.81 437.1 257.74 426.7 253.57 416.31 250.62 406.43 248.97 397.11 247.77 387.75 248.11 378.9 249.96 370.57 252.5 362.12 256.55 354.12 261.93 346.58 267.97 338.83 275.18 331.44 283.32 324.45 291.91 317.17 301.24 310.2 311.05 303.59 321.11 296.66 331.51 290.06 342.04 283.89 352.68 277.44 363.38 271.45 373.94 266.08 384.55 260.57 394.98 255.8 405.04 251.96" stroke-dasharray="106 93" transform="rotate(53, 400, 400)" opacity="0.53"></path><path d="M393.56 269.79C402.12 266.38 409.91 264.05 416.88 262.78 426.87 261.77 442.74 265.55 448.85 270.18 452.86 273.87 456.4 278.46 459.58 283.81 463.27 289.4 466.92 295.69 470.68 302.54 475.31 309.54 480.34 317.02 485.81 324.82 492.29 332.72 499.24 340.87 506.47 349.14 514.38 357.44 522.19 365.82 529.47 374.13 536.59 382.44 542.21 390.28 546.09 397.6 549.08 404.93 550.05 411.77 549.05 418.1 546.98 424.49 543.05 430.45 537.55 435.99 531.23 441.69 523.67 447.09 515.2 452.21 506.32 457.63 496.84 462.91 487.08 468.06 477.2 473.64 467.22 479.19 457.33 484.66 447.47 490.62 437.76 496.52 428.35 502.24 418.97 508.35 409.87 514.17 401.14 519.47 392.42 524.9 384.45 529.34 377.22 532.7 369.95 535.87 363.37 537.8 357.49 538.48 348.82 538.29 334.12 531.05 327.79 524.32 323.35 519.17 319.19 513.09 315.3 506.26 310.88 499.24 306.59 491.57 302.46 483.43 297.75 475.2 293.17 466.58 288.83 457.73 284.06 448.86 279.66 439.79 275.85 430.63 271.97 421.47 269.12 412.66 267.36 404.24 265.93 395.79 265.76 387.7 266.84 379.99 268.44 372.2 271.3 364.74 275.31 357.63 279.82 350.38 285.39 343.41 291.82 336.77 298.63 329.93 306.17 323.37 314.21 317.14 322.51 310.69 331.18 304.55 340.03 298.83 349.01 292.93 358.09 287.46 367.07 282.58 376.11 277.61 385 273.29 393.56 269.79" stroke-dasharray="18 45" transform="rotate(60.57142857142857, 400, 400)" opacity="0.46"></path><path d="M383.25 287.63C390.4 284.58 396.99 282.44 402.99 281.19 411.7 280.01 426.43 282.38 432.7 285.81 436.94 288.56 440.93 292.06 444.75 296.23 448.98 300.56 453.25 305.51 457.61 310.96 462.58 316.52 467.8 322.53 473.25 328.87 479.35 335.28 485.66 341.97 492.01 348.84 498.77 355.73 505.33 362.75 511.36 369.82 517.28 376.89 522.01 383.66 525.41 390.09 528.23 396.52 529.53 402.64 529.33 408.42 528.4 414.26 526.02 419.82 522.35 425.09 518.06 430.49 512.68 435.69 506.42 440.69 499.79 445.91 492.5 451.01 484.8 455.96 476.92 461.22 468.78 466.4 460.57 471.44 452.32 476.81 444.07 482.04 435.96 487.03 427.86 492.27 419.93 497.19 412.25 501.64 404.57 506.17 397.5 509.86 391.02 512.67 381.51 516.23 365.01 518 357.83 516.18 350.76 513 337.76 501.83 331.61 494.17 327.18 488.7 322.89 482.61 318.78 476.03 314.26 469.39 309.91 462.32 305.84 454.94 301.46 447.54 297.45 439.86 293.97 431.99 290.43 424.13 287.76 416.45 286 409.01 284.44 401.57 283.9 394.34 284.37 387.38 285.19 380.36 287.04 373.57 289.83 367.05 292.99 360.43 297.03 354.04 301.83 347.92 306.94 341.67 312.7 335.67 318.96 329.96 325.43 324.12 332.29 318.58 339.39 313.42 346.6 308.15 353.96 303.29 361.33 298.94 368.74 294.56 376.09 290.74 383.25 287.63" stroke-dasharray="19 22" transform="rotate(68.14285714285715, 400, 400)" opacity="0.39"></path><path d="M375.96 305.46C384.58 301.87 400.13 298.5 407.1 298.7 416.39 299.81 424.91 303.69 432.87 309.84 442.01 316.41 451.51 324.99 461.2 334.95 466.64 339.99 472.11 345.32 477.47 350.86 483.06 356.41 488.39 362.16 493.24 368.03 498.03 373.91 501.88 379.62 504.74 385.14 507.25 390.67 508.65 396.02 508.95 401.17 508.16 411.6 503.08 421.48 494.74 430.61 485.24 440.36 473.47 449.76 460.68 458.45 454.2 463.1 447.58 467.57 440.94 471.78 434.3 476.14 427.67 480.19 421.14 483.8 414.61 487.48 408.48 490.46 402.76 492.73 397.01 494.95 391.63 496.38 386.63 497.05 376.37 497.97 367.23 495.66 359.2 490.49 350.29 484.78 341.95 476.49 334.43 466.25 330.26 461.06 326.28 455.44 322.59 449.48 318.71 443.51 315.17 437.22 312.09 430.68 308.96 424.14 306.55 417.66 304.87 411.31 303.31 404.96 302.55 398.71 302.57 392.64 303.29 380.41 307.22 368.69 313.76 357.92 321.12 346.85 330.63 336.57 341.38 327.67 346.87 323.12 352.57 318.93 358.38 315.19 364.21 311.43 370.11 308.15 375.96 305.46" stroke-dasharray="43 105" transform="rotate(75.71428571428572, 400, 400)" opacity="0.32"></path><path d="M373.02 323.29C382.32 318.94 391.14 316.97 399.31 317.17 407.71 317.64 415.86 320.26 423.71 324.68 432.28 329.33 440.98 335.63 449.48 343.18 458.77 350.8 467.65 359.51 475.13 368.92 482.43 378.33 486.77 387.57 488.05 396.31 488.35 405.19 485.55 413.78 480.2 421.82 474.11 430.22 466.01 438.29 456.67 445.61 447.13 453.38 436.77 460.38 426.2 465.97 415.64 471.7 405.83 475.15 397 476.31 387.97 477.23 379.58 475.73 371.98 472.04 363.86 468.06 356.22 462.03 349.39 454.33 341.96 446.5 335.35 437.2 330.2 426.8 324.93 416.4 322.03 405.93 321.44 395.86 321.28 385.74 323.53 375.91 327.83 366.82 332.58 357.59 339.12 349 346.89 341.59 354.84 334.07 363.72 327.77 373.02 323.29" stroke-dasharray="19 27" transform="rotate(83.28571428571428, 400, 400)" opacity="0.25"></path><path d="M374.96 341.13C381.97 337.73 389.04 336.08 395.92 336.02 402.93 336.08 409.97 337.71 416.82 340.69 424.01 343.77 431.17 348.13 437.94 353.51 445.03 358.93 451.6 365.3 457.01 372.41 462.32 379.51 465.59 386.69 466.81 393.65 467.58 400.67 466.25 407.58 463.11 414.09 459.6 420.78 454.49 427.16 448.22 432.87 441.81 438.79 434.46 444.04 426.53 448.13 418.6 452.31 410.85 454.8 403.56 455.65 396.18 456.4 389.1 455.45 382.55 452.93 375.76 450.29 369.35 446.12 363.65 440.66 357.67 435.13 352.41 428.39 348.32 420.67 344.15 412.95 341.72 405.01 340.95 397.25 340.35 389.48 341.45 381.85 344.05 374.75 346.84 367.6 351.02 360.95 356.3 355.21 361.65 349.44 367.95 344.6 374.96 341.13" stroke-dasharray="14 76" transform="rotate(90.85714285714285, 400, 400)" opacity="0.19"></path><path d="M381.43 358.96C390.93 354.3 401.58 354.22 411.53 357.79 421.94 361.49 431.97 368.63 438.9 378.2 445.66 387.77 447.16 398.05 444.02 407.17 440.33 416.56 432.52 425.02 422.05 430.3 411.58 435.72 400.58 436.58 390.96 433.46 381.05 430.18 372.12 422.97 366.43 412.82 360.61 402.65 359.43 391.59 362.23 381.88 365.21 372.16 371.93 363.75 381.43 358.96" stroke-dasharray="85 83" transform="rotate(98.42857142857143, 400, 400)" opacity="0.12"></path></g></svg>